# Blender 4.2.19 LTS
# www.blender.org
mtllib Cabinet2_visual.mtl
o Cabinet2_visual.001
v -0.625000 0.550000 -2.400000
v -0.625000 -0.550000 -2.400000
v -0.625000 -0.550000 2.400000
v -0.625000 0.550000 2.400000
v 0.625000 0.550000 -2.400000
v 0.625000 -0.550000 -2.400000
v 0.625000 -0.550000 2.400000
v 0.625000 0.550000 2.400000
v -0.425000 0.350000 -2.200000
v -0.425000 -0.550000 -2.200000
v -0.425000 -0.550000 2.200000
v -0.425000 0.350000 2.200000
v 0.425000 0.350000 -2.200000
v 0.425000 -0.550000 -2.200000
v 0.425000 -0.550000 2.200000
v 0.425000 0.350000 2.200000
v -0.425000 0.350000 0.000000
v -0.425000 -0.550000 0.000000
v -0.425000 -0.550000 -0.200000
v -0.425000 0.350000 -0.200000
v 0.425000 0.350000 0.000000
v 0.425000 -0.550000 0.000000
v 0.425000 -0.550000 -0.200000
v 0.425000 0.350000 -0.200000
vn -1.0000 -0.0000 -0.0000
vn 1.0000 -0.0000 -0.0000
vn -0.0000 1.0000 -0.0000
vn -0.0000 -0.0000 -1.0000
vn -0.0000 -0.0000 1.0000
vn -0.0000 -1.0000 -0.0000
s 0
f 1//1 2//1 3//1 4//1
f 5//2 8//2 7//2 6//2
f 1//3 4//3 8//3 5//3
f 1//4 5//4 6//4 2//4
f 4//5 3//5 7//5 8//5
f 9//2 12//2 11//2 10//2
f 13//1 14//1 15//1 16//1
f 9//6 13//6 16//6 12//6
f 9//5 10//5 14//5 13//5
f 12//4 16//4 15//4 11//4
f 2//6 10//6 11//6 3//6
f 3//6 11//6 15//6 7//6
f 7//6 15//6 14//6 6//6
f 6//6 14//6 10//6 2//6
f 17//1 20//1 19//1 18//1
f 21//2 22//2 23//2 24//2
f 17//3 21//3 24//3 20//3
f 17//5 18//5 22//5 21//5
f 20//4 24//4 23//4 19//4
f 18//6 19//6 23//6 22//6
